# xmcd
#
# Track frame offsets:
#	182
#	15707
#	41357
#	57755
#	72422
#	86722
#	98920
#	115005
#	127145
#	137797
#	155780
#	175897
#
# Disc length: 2542 seconds
#
# Revision: 0
# Processed by: cddbd v1.5.2PL0 Copyright (c) Steve Scherf et al.
# Submitted via: audiograbber 1.83.01
#
DISCID=a609ec0c
DTITLE=MS® - Jugo De Hits 9.9
DYEAR=1995
DGENRE=Pop
TTITLE0=Timmy Thomas - Why Can't We Live Together
TTITLE1=Kool and The Gang - Cherish
TTITLE2=Righteous Brothers - Unchained Melody
TTITLE3=Stylistics - Can't Give You Anything (But My Love)
TTITLE4=Sergio Mendes - Fool On The Hill
TTITLE5=Chris Montez - The More I See You
TTITLE6=Lobo - Don't Expect To Be Your Friend
TTITLE7=Platters - The Great Pretender
TTITLE8=Lobos - Donna
TTITLE9=Giorgio Moroder - Lonely Lovers Symphony-Fur Elise
TTITLE10=Love Unlimited Orchestra - Walkin In The Rain With The One I Love
TTITLE11=Yvonne Elliman - Love Me
EXTD=MS®
EXTT0=MS®
EXTT1=
EXTT2=
EXTT3=
EXTT4=
EXTT5=
EXTT6=
EXTT7=
EXTT8=
EXTT9=
EXTT10=
EXTT11=
PLAYORDER=
